<svg width="44" height="44" viewBox="0 0 44 44" fill="none" xmlns="http://www.w3.org/2000/svg">
<circle cx="22" cy="22" r="22" fill="white"/>
<path d="M31.1667 17.4168L22.0001 23.146L12.8334 17.4168V15.1252L22.0001 20.8543L31.1667 15.1252M31.1667 12.8335H12.8334C11.5615 12.8335 10.5417 13.8533 10.5417 15.1252V28.8752C10.5417 29.4829 10.7832 30.0658 11.213 30.4956C11.6427 30.9254 12.2256 31.1668 12.8334 31.1668H31.1667C31.7745 31.1668 32.3574 30.9254 32.7872 30.4956C33.217 30.0658 33.4584 29.4829 33.4584 28.8752V15.1252C33.4584 14.5174 33.217 13.9345 32.7872 13.5047C32.3574 13.0749 31.7745 12.8335 31.1667 12.8335Z" fill="#F46218"/>
</svg>
