<svg width="26" height="26" viewBox="0 0 26 26" fill="none" xmlns="http://www.w3.org/2000/svg">
<path fill-rule="evenodd" clip-rule="evenodd" d="M0 7.17864C0 3.22034 3.22034 0 7.17864 0H18.8215C22.7798 0 26 3.22034 26 7.17864V18.8215C26 22.7798 22.7798 26 18.8215 26H7.17864C3.22034 26 0 22.7798 0 18.8215V7.17864ZM7.83789 13C7.83789 15.8464 10.1536 18.1621 13 18.1621C15.8464 18.1621 18.1621 15.8464 18.1621 13C18.1621 10.1536 15.8464 7.83789 13 7.83789C10.1536 7.83789 7.83789 10.1536 7.83789 13ZM6.16474 13C6.16474 9.23096 9.23096 6.16474 13 6.16474C16.769 6.16474 19.8353 9.23096 19.8353 13C19.8353 16.769 16.769 19.8353 13 19.8353C9.23096 19.8353 6.16474 16.769 6.16474 13ZM21.3262 2.75721C22.3171 2.75721 23.1203 3.56045 23.1203 4.55129C23.1203 5.54216 22.3171 6.34539 21.3262 6.34539C20.3354 6.34539 19.5321 5.54216 19.5321 4.55129C19.5321 3.56045 20.3354 2.75721 21.3262 2.75721Z" fill="white"/>
</svg>
