<svg width="44" height="44" viewBox="0 0 44 44" fill="none" xmlns="http://www.w3.org/2000/svg">
<g clip-path="url(#clip0_33_7)">
<path d="M22 0C9.86883 0 0 9.86883 0 22C0 34.1312 9.86883 44 22 44C34.1312 44 44 34.1312 44 22C44 9.86883 34.1312 0 22 0ZM16.2378 33C14.9123 33 13.5813 32.5215 12.5712 31.5095L11.6142 30.4095C10.7965 29.5918 10.7965 28.2645 11.6142 27.4468L14.0012 25.6135C14.8188 24.7958 16.1462 24.7958 16.9638 25.6135L18.9237 27.1737C22.7205 25.7235 25.5218 23.0377 27.1737 18.9237L25.6135 16.9638C24.7958 16.1462 24.7958 14.8188 25.6135 14.0012L27.4468 11.6142C28.2645 10.7965 29.5918 10.7965 30.4095 11.6142L31.5095 12.5712C32.5215 13.5813 33 14.9123 33 16.2378C33 23.5712 23.0468 33 16.2378 33Z" fill="white"/>
</g>
<defs>
<clipPath id="clip0_33_7">
<rect width="44" height="44" fill="white"/>
</clipPath>
</defs>
</svg>
