<svg width="47" height="56" viewBox="0 0 47 56" fill="none" xmlns="http://www.w3.org/2000/svg">
<path d="M6.19511 10.7091L3.16394 16.6661H36.5566L39.5877 10.7091H6.19511ZM22.779 47.3506C22.1109 47.3506 21.5703 46.8158 21.5703 46.155C21.5703 45.4941 22.1109 44.9594 22.779 44.9594H32.4818C33.1499 44.9594 33.6905 45.4941 33.6905 46.155C33.6905 46.8159 33.1499 47.3506 32.4818 47.3506H22.779ZM22.779 44.3149C22.1109 44.3149 21.5703 43.7801 21.5703 43.1193C21.5703 42.4584 22.1109 41.9236 22.779 41.9236H27.6303C28.2984 41.9236 28.839 42.4584 28.839 43.1193C28.839 43.7801 28.2984 44.3149 27.6303 44.3149H22.779ZM5.65905 40.8354H19.0701C19.7382 40.8354 20.2788 41.3702 20.2788 42.0311V47.2409C20.2788 47.9017 19.7382 48.4365 19.0701 48.4365H5.65905C4.99094 48.4365 4.45036 47.9017 4.45036 47.2409V42.0311C4.45036 41.3702 4.99096 40.8354 5.65905 40.8354ZM5.65905 24.2277H32.4818C33.1499 24.2277 33.6905 24.7625 33.6905 25.4233V36.8188C33.6905 37.4796 33.1499 38.0144 32.4818 38.0144H5.65905C4.99094 38.0144 4.45036 37.4796 4.45036 36.8188V25.4233C4.45036 24.7625 4.99096 24.2277 5.65905 24.2277ZM31.2731 26.619H6.86775V35.6232H31.2731V26.619ZM40.3335 37.9911C40.3335 37.3302 40.8741 36.7955 41.5422 36.7955C42.2103 36.7955 42.7509 37.3302 42.7509 37.9911V50.6174L44.5828 50.2531V18.137L41.5446 12.1659L38.5063 18.1393V52.6066L40.3335 51.4297V37.9911ZM2.40827 19.0549L2.4059 53.6088H36.0862V19.0549H2.40827ZM45.9944 52.4108L41.9953 53.2024L38.0434 55.7455C37.8192 55.9113 37.5807 56 37.2974 56H1.20398C0.538232 55.9953 0 55.4629 0 54.8044L0.00236016 17.9339C-0.00944396 17.7284 0.028328 17.5182 0.129841 17.3221L4.2446 9.23316V1.19562C4.2446 0.53474 4.78521 0 5.4533 0H41.5443C42.2125 0 42.753 0.534758 42.753 1.19562V9.23316L46.8678 17.3197C46.9551 17.4925 46.9976 17.677 46.9976 17.8568L47 51.2289C47 51.7917 46.5656 52.3264 45.9967 52.4082L45.9944 52.4108ZM6.66227 4.15867H40.3359V2.39095H6.66227V4.15867ZM40.3359 6.54991H6.66227V8.31763H40.3359V6.54991Z" fill="white"/>
</svg>
