<svg width="72" height="58" viewBox="0 0 72 58" fill="none" xmlns="http://www.w3.org/2000/svg">
<path d="M64.1838 2.18066C65.4262 2.18075 66.5463 2.98615 66.9807 4.18164L71.2034 15.8115L71.2639 15.9941C71.5355 16.9149 71.3763 17.912 70.8245 18.6982C70.2571 19.5092 69.3751 19.9745 68.4036 19.9746H66.6506L62.0959 53.0449C61.8011 55.2 59.9351 56.8252 57.759 56.8252H38.5081C36.3997 56.8252 34.5853 55.2996 34.2034 53.2451L34.1711 53.0449L29.6165 19.9746H27.8635C26.8917 19.9746 26.0098 19.5059 25.4426 18.6982C24.8569 17.8598 24.7156 16.7815 25.0667 15.8115L29.2893 4.18164C29.7238 2.98621 30.8439 2.18082 32.0862 2.18066H64.1838ZM35.9602 52.7988C36.135 54.0655 37.2332 55.0224 38.511 55.0225H57.7629C59.0436 55.0224 60.1389 54.0656 60.3137 52.7988L64.8333 19.9736H31.4407L35.9602 52.7988ZM32.093 3.98047C31.6749 3.98047 31.2795 4.22746 31.0686 4.61816L30.9895 4.79395L26.7668 16.4238L26.7659 16.4248C26.6127 16.8424 26.6737 17.3045 26.9241 17.6631L26.925 17.6641C27.1507 17.9891 27.4956 18.1708 27.8665 18.1709L68.4065 18.1748C68.7771 18.1748 69.1199 17.9923 69.3489 17.666L69.4338 17.5273C69.5862 17.2404 69.6307 16.9055 69.5569 16.585L69.51 16.4268L65.2874 4.79688C65.1105 4.30593 64.6616 3.98342 64.1838 3.9834L32.093 3.98047Z" fill="white" stroke="white" stroke-width="0.3"/>
<path d="M61.2849 5.65454C62.3583 5.65474 63.2756 6.38706 63.5173 7.43188L64.9617 13.6887C65.1187 14.3701 64.9585 15.0808 64.5222 15.6301C64.0856 16.1798 63.4281 16.4934 62.7283 16.4934H33.5457C32.843 16.4934 32.1892 16.1795 31.7527 15.6301C31.3164 15.0808 31.1563 14.3729 31.3132 13.6887L32.7566 7.43188C32.9983 6.38695 33.9164 5.65454 34.99 5.65454H61.2849ZM34.989 7.45435C34.7605 7.4545 34.5654 7.61112 34.5134 7.83423L33.0691 14.094C33.0356 14.2393 33.072 14.3923 33.1648 14.51C33.2564 14.6262 33.3946 14.6936 33.5457 14.6936H62.7283C62.8768 14.6936 63.0177 14.6259 63.1091 14.51L63.1101 14.509C63.2033 14.3937 63.2379 14.2445 63.2039 14.0911L61.7605 7.83423C61.7087 7.60888 61.5134 7.45435 61.2839 7.45435H34.989Z" fill="white" stroke="white" stroke-width="0.3"/>
<path d="M57.1753 25.8191C57.6716 25.8193 58.0755 26.2241 58.0757 26.7205V39.2371C58.0757 39.7336 57.6717 40.1382 57.1753 40.1384H39.0972C38.5974 40.1383 38.1958 39.7332 38.1958 39.2371V26.7205C38.196 26.2241 38.6008 25.8193 39.0972 25.8191H57.1753ZM39.9985 38.3357H56.2739V27.6218H39.9985V38.3357Z" fill="white" stroke="white" stroke-width="0.3"/>
<path d="M9.84741 0.850586C12.2753 0.850683 14.4648 2.17085 16.0417 4.2793C17.6187 6.38779 18.5906 9.29198 18.5876 12.4893C18.5876 16.2548 17.2142 19.8044 14.9011 21.9834C13.8787 22.9463 13.3063 24.3861 13.3435 25.9385L13.9714 52.9258C13.9988 54.1042 13.5204 55.2372 12.6619 56.041L12.6609 56.042C11.8936 56.7543 10.8828 57.1504 9.83862 57.1504C9.77606 57.1504 9.71279 57.1486 9.64917 57.1455L9.45776 57.1318C7.30539 56.9332 5.67278 55.0215 5.72437 52.7852L6.34644 25.9355V25.6465C6.31053 24.2056 5.74634 22.8841 4.78784 21.9814C2.47457 19.8055 1.10132 16.252 1.10132 12.4863C1.10141 9.29077 2.0747 6.38742 3.6521 4.2793C5.22965 2.17108 7.41954 0.850586 9.84741 0.850586ZM9.84741 2.65332C7.95296 2.65332 6.22041 3.73754 4.95581 5.51758C3.6915 7.29721 2.90405 9.76215 2.90405 12.4873C2.90409 15.7835 4.07912 18.8389 6.02905 20.668L6.28491 20.9229C7.52374 22.2285 8.19892 24.0521 8.15405 25.9785L7.52905 52.8252C7.49865 54.128 8.42733 55.2244 9.62573 55.334L9.87964 55.3438C10.4658 55.337 11.0063 55.1223 11.4353 54.7197V54.7188C11.8598 54.3232 12.1194 53.7843 12.1667 53.2129L12.1746 52.9658L11.5457 25.9785C11.4978 23.9234 12.2698 21.9877 13.6707 20.668L13.8513 20.4932C15.6903 18.6481 16.7907 15.6809 16.7908 12.4873C16.7908 9.76214 16.0024 7.29721 14.738 5.51758C13.4735 3.73773 11.7417 2.65343 9.84741 2.65332Z" fill="white" stroke="white" stroke-width="0.3"/>
</svg>
