<svg width="45" height="56" viewBox="0 0 45 56" fill="none" xmlns="http://www.w3.org/2000/svg">
<path d="M22.183 28.4786C29.8797 28.4786 36.1426 22.2065 36.1426 14.4912C36.1426 6.77599 29.8797 0.494629 22.183 0.494629C14.4862 0.494629 8.22339 6.76674 8.22339 14.482C8.22339 22.1972 14.4862 28.4786 22.183 28.4786ZM22.183 2.34481C28.8621 2.34481 34.2924 7.79359 34.2924 14.482C34.2924 21.1796 28.8621 26.6192 22.183 26.6192C15.5038 26.6192 10.0736 21.1704 10.0736 14.482C10.0736 7.79359 15.5038 2.34481 22.183 2.34481Z" fill="white"/>
<path d="M17.9273 16.5264L17.2427 20.532C17.1872 20.8836 17.326 21.2259 17.6128 21.4386C17.8995 21.6422 18.2788 21.6699 18.5841 21.5126L22.1827 19.6162L25.7813 21.5126C25.9201 21.5866 26.0681 21.6144 26.2161 21.6144C26.4104 21.6144 26.5954 21.5589 26.7619 21.4386C27.0487 21.2351 27.1874 20.8836 27.1319 20.532L26.4474 16.5264L29.3614 13.6864C29.6112 13.4366 29.7037 13.0758 29.5927 12.7335C29.4817 12.4005 29.1949 12.1507 28.8434 12.1045L24.8192 11.5217L23.0153 7.87682C22.7008 7.24776 21.6647 7.24776 21.3594 7.87682L19.5555 11.5217L15.5313 12.1045C15.1798 12.1507 14.893 12.4005 14.782 12.7335C14.671 13.0666 14.7635 13.4366 15.0133 13.6864L17.9273 16.5264ZM20.2955 13.2793C20.6008 13.2331 20.8598 13.0481 20.9893 12.7705L22.1735 10.3653L23.3576 12.7705C23.4963 13.0481 23.7554 13.2331 24.0514 13.2793L26.7064 13.6679L24.7915 15.5366C24.5694 15.7493 24.4769 16.0546 24.5232 16.3599L24.9857 18.9964L22.6175 17.7475C22.4787 17.6735 22.3307 17.6458 22.1827 17.6458C22.0347 17.6458 21.8867 17.6828 21.7479 17.7475L19.3797 18.9964L19.833 16.3506C19.8885 16.0546 19.7867 15.7401 19.5647 15.5273L17.6498 13.6586L20.2955 13.2793Z" fill="white"/>
<path d="M39.3431 42.3735C38.8343 42.3735 38.418 42.7898 38.418 43.2986V52.9011C38.418 53.5949 37.8537 54.1499 37.1691 54.1499H23.1078V41.763C23.1078 41.2542 22.6915 40.8379 22.1827 40.8379C21.6739 40.8379 21.2576 41.2542 21.2576 41.763V54.1499H7.2055C6.51168 54.1499 5.95662 53.5856 5.95662 52.9011V43.2986C5.95662 42.7898 5.54033 42.3735 5.03153 42.3735C4.52274 42.3735 4.10645 42.7898 4.10645 43.2986V52.9011C4.10645 54.6125 5.49408 56.0001 7.2055 56.0001H37.1691C38.8806 56.0001 40.2682 54.6125 40.2682 52.9011V43.2986C40.2682 42.7806 39.8519 42.3735 39.3431 42.3735Z" fill="white"/>
<path d="M44.1907 39.1263L39.3155 32.4472C39.1398 32.2066 38.8622 32.0679 38.5662 32.0679H22.1829H5.79953C5.5035 32.0679 5.22597 32.2066 5.05021 32.4472L0.174985 39.1263C-0.0285343 39.4038 -0.0562869 39.7831 0.100978 40.0884C0.258244 40.3937 0.582025 40.5972 0.924308 40.5972H17.3076C17.6037 40.5972 17.8812 40.4584 18.057 40.2179L22.1829 34.5656L26.3088 40.2179C26.4845 40.4584 26.7621 40.5972 27.0581 40.5972H43.4414C43.793 40.5972 44.1075 40.4029 44.2648 40.0884C44.4313 39.7831 44.4035 39.4038 44.1907 39.1263ZM16.8358 38.747H2.73748L6.26207 33.9181H20.3604L16.8358 38.747ZM27.5299 38.747L24.0053 33.9181H38.1037L41.6282 38.747H27.5299Z" fill="white"/>
</svg>
